<?xml version="1.0" encoding="utf-8" standalone="yes"?>
<!DOCTYPE svg PUBLIC "-//W3C//DTD SVG 1.1//EN" "http://www.w3.org/Graphics/SVG/1.1/DTD/svg11.dtd">
<svg width="877" height="600" viewBox="0 0 877 600" style="fill:none;stroke:none;fill-rule:evenodd;clip-rule:evenodd;stroke-linecap:round;stroke-linejoin:round;stroke-miterlimit:1.5;" version="1.1" xmlns="http://www.w3.org/2000/svg" xmlns:xlink="http://www.w3.org/1999/xlink"><style class="text-font-style fontImports" data-font-family="Roboto">@import url('https://fonts.googleapis.com/css2?family=Roboto:wght@400;700&amp;display=block');</style><g id="items" style="isolation: isolate"><g id="blend" style="mix-blend-mode: normal"><g id="g-root-cp_2_g-2_1lvifmka1wb2n-fill" data-item-order="-416798" transform="translate(242, 254.09808349609375)"><g id="cp_2_g-2_1lvifmka1wb2n-fill" stroke="none" fill="#3b5649"><g><path d="M 41.0002 58L 10 106L 241.074 106L 287.598 58.0153L 241.057 10L 10.0001 10.0001L 41.0002 58Z"></path></g></g></g><g id="g-root-cp_3_g-3_1hfoxi4a1wbux-fill" data-item-order="-416794" transform="translate(242, 302.11175537109375)"><g id="cp_3_g-3_1hfoxi4a1wbux-fill" stroke="none" fill="#4b533a"><g><path d="M 41.0002 153.985L 10 201.985L 172.523 201.985C 212.569 201.985 250.905 185.757 278.78 157.007L 359.466 73.7876C 369.26 63.6862 382.73 57.9847 396.8 57.9847L 396.769 57.9847C 356.717 57.9847 318.375 41.7516 290.499 12.9923L 287.598 10L 209.857 90.1817C 200.063 100.2832 186.593 105.9847 172.523 105.9847L 10.0001 105.9851L 41.0002 153.985Z"></path></g></g></g><g id="g-root-cp_1_g-1_144uw7wa1waa3-fill" data-item-order="-416790" transform="translate(242, 110.22698974609375)"><g id="cp_1_g-1_144uw7wa1waa3-fill" stroke="none" fill="#54502f"><g><path d="M 396.893 250C 356.841 250 318.499 233.767 290.623 205.008L 209.978 121.808C 200.184 111.704 186.712 106 172.64 106L 10 105.9999L 41.0002 57.9999L 10.0001 10L 172.64 10C 212.692 10 251.034 26.2331 278.91 54.9924L 359.555 138.192C 369.35 148.296 382.821 154 396.893 154L 578 153.87L 609 201.87L 578 249.87C 521.734 249.87 453.25 250 396.893 250Z"></path></g></g></g><g id="g-root-tx_engaging_qteduka1wbv1-fill" data-item-order="0" transform="translate(253.5, 38)"><g id="tx_engaging_qteduka1wbv1-fill" stroke="none" fill="#f4f4f4"><g><text style="font: 20px Roboto, sans-serif; white-space: pre;" font-size="20px" font-family="Roboto, sans-serif"><tspan x="17.6" y="34" dominant-baseline="ideographic">Engaging Leadership Communication</tspan></text></g></g></g><g id="g-root-tx_1_me7ct8a1w9hi-fill" data-item-order="0" transform="translate(44, 140)"><g id="tx_1_me7ct8a1w9hi-fill" stroke="none" fill="#ffe711"><g><text style="font: bold 30px Roboto, sans-serif; white-space: pre;" font-weight="bold" font-size="30px" font-family="Roboto, sans-serif"><tspan x="13.66" y="44.5" dominant-baseline="ideographic">1</tspan></text></g></g></g><g id="g-root-tx_clearlya_92qufwa1wb2f-fill" data-item-order="0" transform="translate(98, 128.22698974609375)"><g id="tx_clearlya_92qufwa1wb2f-fill" stroke="none" fill="#f4f4f4"><g><text style="font: 15px Roboto, sans-serif; white-space: pre;" font-size="15px" font-family="Roboto, sans-serif"><tspan x="12" y="31" dominant-baseline="ideographic">Clearly articulating </tspan><tspan x="12" y="49" dominant-baseline="ideographic">decisions to foster </tspan><tspan x="12" y="67" dominant-baseline="ideographic">understanding.</tspan></text></g></g></g><g id="g-root-tx_explaini_zqac9oa1xqme-fill" data-item-order="0" transform="translate(290, 134.22698974609375)"><g id="tx_explaini_zqac9oa1xqme-fill" stroke="none" fill="#ffe711"><g><text style="font: bold 20px Roboto, sans-serif; white-space: pre;" font-weight="bold" font-size="20px" font-family="Roboto, sans-serif"><tspan x="12" y="34" dominant-baseline="ideographic">Explaining </tspan><tspan x="12" y="58" dominant-baseline="ideographic">Decisions</tspan></text></g></g></g><g id="g-root-tx_effectiv_1hhkcrga1wavd-fill" data-item-order="0" transform="translate(86, 266.22698974609375)"><g id="tx_effectiv_1hhkcrga1wavd-fill" stroke="none" fill="#f4f4f4"><g><text style="font: 15px Roboto, sans-serif; white-space: pre;" font-size="15px" font-family="Roboto, sans-serif"><tspan x="12" y="28" dominant-baseline="ideographic">Effectively </tspan><tspan x="12" y="46" dominant-baseline="ideographic">communicating </tspan><tspan x="12" y="64" dominant-baseline="ideographic">goals to align team </tspan><tspan x="12" y="82" dominant-baseline="ideographic">efforts.</tspan></text></g></g></g><g id="g-root-tx_2_1qd7d0ca1wa2o-fill" data-item-order="0" transform="translate(44, 284)"><g id="tx_2_1qd7d0ca1wa2o-fill" stroke="none" fill="#43dd93"><g><text style="font: bold 30px Roboto, sans-serif; white-space: pre;" font-weight="bold" font-size="30px" font-family="Roboto, sans-serif"><tspan x="13.66" y="44.5" dominant-baseline="ideographic">2</tspan></text></g></g></g><g id="g-root-tx_communic_mfgazga1xp1j-fill" data-item-order="0" transform="translate(290, 278.22698974609375)"><g id="tx_communic_mfgazga1xp1j-fill" stroke="none" fill="#43dd93"><g><text style="font: bold 20px Roboto, sans-serif; white-space: pre;" font-weight="bold" font-size="20px" font-family="Roboto, sans-serif"><tspan x="12" y="34" dominant-baseline="ideographic">Communicating </tspan><tspan x="12" y="58" dominant-baseline="ideographic">Goals</tspan></text></g></g></g><g id="g-root-tx_transpar_1usee1oa1xpu5-fill" data-item-order="0" transform="translate(614, 266.22698974609375)"><g id="tx_transpar_1usee1oa1xpu5-fill" stroke="none" fill="#4e88e6"><g><text style="font: bold 20px Roboto, sans-serif; white-space: pre;" font-weight="bold" font-size="20px" font-family="Roboto, sans-serif"><tspan x="31.21" y="34" dominant-baseline="ideographic">Transparent </tspan><tspan x="21.51" y="58" dominant-baseline="ideographic">and Inclusive </tspan><tspan x="40.27" y="82" dominant-baseline="ideographic">Leadership</tspan></text></g></g></g><g id="g-root-ic_2_mfgazga1wbno-fill" data-item-order="0" transform="translate(758, 278.22705078125)"></g><g id="g-root-tx_3_1d1qun0a1wbnm-fill" data-item-order="0" transform="translate(44, 428)"><g id="tx_3_1d1qun0a1wbnm-fill" stroke="none" fill="#a6da37"><g><text style="font: bold 30px Roboto, sans-serif; white-space: pre;" font-weight="bold" font-size="30px" font-family="Roboto, sans-serif"><tspan x="13.66" y="44.5" dominant-baseline="ideographic">3</tspan></text></g></g></g><g id="g-root-tx_detailin_146qbh8a1w9aj-fill" data-item-order="0" transform="translate(74, 416.22698974609375)"><g id="tx_detailin_146qbh8a1w9aj-fill" stroke="none" fill="#f4f4f4"><g><text style="font: 15px Roboto, sans-serif; white-space: pre;" font-size="15px" font-family="Roboto, sans-serif"><tspan x="12" y="31" dominant-baseline="ideographic">Detailing methods to </tspan><tspan x="12" y="49" dominant-baseline="ideographic">ensure collaborative </tspan><tspan x="12" y="67" dominant-baseline="ideographic">execution.</tspan></text></g></g></g><g id="g-root-tx_outlinin_1uu9tb0a1xoug-fill" data-item-order="0" transform="translate(290, 422.22698974609375)"><g id="tx_outlinin_1uu9tb0a1xoug-fill" stroke="none" fill="#a6da37"><g><text style="font: bold 20px Roboto, sans-serif; white-space: pre;" font-weight="bold" font-size="20px" font-family="Roboto, sans-serif"><tspan x="12" y="34" dominant-baseline="ideographic">Outlining </tspan><tspan x="12" y="58" dominant-baseline="ideographic">Methods</tspan></text></g></g></g><g id="g-root-cp_2_g-2_1lvifmka1wb2n-stroke" data-item-order="-416798" transform="translate(242, 254.09808349609375)"><g id="cp_2_g-2_1lvifmka1wb2n-stroke" fill="none" stroke-linecap="round" stroke-linejoin="round" stroke-miterlimit="4" stroke="#43dd93" stroke-width="2"><g><path d="M 41.0002 58L 10 106L 241.0738 106L 287.598 58.0153L 241.057 10L 10.0001 10.0001L 41.0002 58Z"></path></g></g></g><g id="g-root-cp_3_g-3_1hfoxi4a1wbux-stroke" data-item-order="-416794" transform="translate(242, 302.11175537109375)"><g id="cp_3_g-3_1hfoxi4a1wbux-stroke" fill="none" stroke-linecap="round" stroke-linejoin="round" stroke-miterlimit="4" stroke="#a6da37" stroke-width="2"><g><path d="M 41.0002 153.9849L 10 201.9849L 172.5235 201.9847C 212.5686 201.9847 250.9046 185.7573 278.7798 157.007L 359.4663 73.7876C 369.2603 63.6862 382.7296 57.9847 396.7995 57.9847L 396.7691 57.9847C 356.7169 57.9847 318.3748 41.7516 290.4985 12.9923L 287.5981 10L 209.8568 90.1817C 200.0628 100.2832 186.5934 105.9847 172.5235 105.9847L 10.0001 105.9851L 41.0002 153.9849Z"></path></g></g></g><g id="g-root-cp_1_g-1_144uw7wa1waa3-stroke" data-item-order="-416790" transform="translate(242, 110.22698974609375)"><g id="cp_1_g-1_144uw7wa1waa3-stroke" fill="none" stroke-linecap="round" stroke-linejoin="round" stroke-miterlimit="4" stroke="#ffe711" stroke-width="2"><g><path d="M 396.8935 250C 356.8413 250 318.4992 233.7669 290.6229 205.0076L 209.978 121.8081C 200.1837 111.7035 186.7121 106 172.6397 106L 10 105.9999L 41.0002 57.9999L 10.0001 10L 172.6397 10C 212.6919 10 251.034 26.2331 278.9103 54.9924L 359.5552 138.1919C 369.3495 148.2965 382.821 154 396.8935 154L 578.0001 153.8702L 609.0002 201.8701L 578 249.8701C 521.7335 249.8701 453.2504 250 396.8935 250Z"></path></g></g></g><g id="g-root-tx_engaging_qteduka1wbv1-stroke" data-item-order="0" transform="translate(253.5, 38)"></g><g id="g-root-tx_1_me7ct8a1w9hi-stroke" data-item-order="0" transform="translate(44, 140)"></g><g id="g-root-tx_clearlya_92qufwa1wb2f-stroke" data-item-order="0" transform="translate(98, 128.22698974609375)"></g><g id="g-root-tx_explaini_zqac9oa1xqme-stroke" data-item-order="0" transform="translate(290, 134.22698974609375)"></g><g id="g-root-tx_effectiv_1hhkcrga1wavd-stroke" data-item-order="0" transform="translate(86, 266.22698974609375)"></g><g id="g-root-tx_2_1qd7d0ca1wa2o-stroke" data-item-order="0" transform="translate(44, 284)"></g><g id="g-root-tx_communic_mfgazga1xp1j-stroke" data-item-order="0" transform="translate(290, 278.22698974609375)"></g><g id="g-root-tx_transpar_1usee1oa1xpu5-stroke" data-item-order="0" transform="translate(614, 266.22698974609375)"></g><g id="g-root-ic_2_mfgazga1wbno-stroke" data-item-order="0" transform="translate(758, 278.22705078125)"><g id="ic_2_mfgazga1wbno-stroke" fill="none" stroke-linecap="round" stroke-linejoin="round" stroke-miterlimit="4" stroke="#f4f4f4" stroke-width="2"><g><path d="M 29.499994 15.499998C 29.499994 17.985279 31.514713 19.999996 33.999992 19.999996C 36.485271 19.999996 38.499992 17.985279 38.499992 15.499998C 38.499992 13.014718 36.485271 11 33.999992 11C 31.514713 11 29.499994 13.014718 29.499994 15.499998ZM 42.999989 28.999994C 41.950916 24.885946 38.245693 22.006979 33.999992 22.006979C 29.754295 22.006979 26.049068 24.885946 24.999996 28.999994ZM 10 10M 33.999992 36.999992L 33.999992 32.999992M 10 10M 22.999996 36.999992L 25.999996 32.999992M 10 10M 44.999989 36.999992L 41.999992 32.999992M 29.471994 46.699989C 29.471994 49.295727 31.576256 51.399986 34.171993 51.399986C 36.767731 51.399986 38.87199 49.295727 38.87199 46.699989C 38.87199 44.104248 36.767731 41.999992 34.171993 41.999992C 31.576256 41.999992 29.471994 44.104248 29.471994 46.699989ZM 14.687999 46.699989C 14.687999 49.295727 16.792259 51.399986 19.387997 51.399986C 21.983734 51.399986 24.087996 49.295727 24.087996 46.699989C 24.087996 44.104248 21.983734 41.999992 19.387997 41.999992C 16.792259 41.999992 14.687999 44.104248 14.687999 46.699989ZM 43.92799 46.699989C 43.927986 49.295727 46.032249 51.399986 48.627987 51.399986C 51.223724 51.399986 53.327988 49.295727 53.327988 46.699989C 53.327988 44.104248 51.223724 41.999992 48.627987 41.999992C 46.032249 41.999992 43.927986 44.104248 43.927986 46.699989ZM 55.999985 56.999985C 54.222 54.794224 51.541126 53.511803 48.707989 53.511803C 45.874855 53.511803 43.193977 54.794224 41.415993 56.999985C 39.577232 54.804298 36.863899 53.531055 33.999996 53.519989M 11.999999 56.999985C 13.777987 54.794224 16.458862 53.511803 19.291998 53.511803C 22.125132 53.511803 24.806007 54.794224 26.583996 56.999985C 28.422756 54.804298 31.136087 53.531055 33.999996 53.519989"></path></g></g></g><g id="g-root-tx_3_1d1qun0a1wbnm-stroke" data-item-order="0" transform="translate(44, 428)"></g><g id="g-root-tx_detailin_146qbh8a1w9aj-stroke" data-item-order="0" transform="translate(74, 416.22698974609375)"></g><g id="g-root-tx_outlinin_1uu9tb0a1xoug-stroke" data-item-order="0" transform="translate(290, 422.22698974609375)"></g></g></g><path id="w9088s9hj30i" d="M65.283 12.757a.35.35 0 0 0 .584.157l5.203-5.141-6.183 3.523.396 1.461zm-2.216-11.7a.35.35 0 0 0-.522.305v3.111l3.276-1.868-2.754-1.548zm3.728 2.105l-4.25 2.421v2.445l6.391-3.644-2.141-1.222zm4.708 3.303a.35.35 0 0 0 0-.609l-1.592-.9-7.365 4.199v1.782a.35.35 0 0 0 .523.305l8.435-4.777z M44.542 2.513c0-.433.355-.783.792-.783s.792.35.792.783-.355.783-.792.783-.792-.35-.792-.783zm59.171 0c0-.433.355-.783.792-.783s.792.35.792.783-.355.783-.792.783-.792-.35-.792-.783zm-85.951 7.636h-1.27v-.487c-.276.201-.864.609-1.881.609-1.202 0-2.274-.794-2.137-2.078.118-1.106 1.153-1.584 1.848-1.727l2.17-.345c0-.539-.29-.956-1.064-1.006s-1.21.305-1.571 1.017l-1.124-.605c1.218-2.631 5.029-1.764 5.029.414v4.207zm-1.27-2.86c.006.396-.062 1.112-.819 1.59-.587.37-1.841.299-1.903-.395-.049-.555.461-.791.906-.898l1.816-.297zm72.662 2.86h-1.27v-.487c-.276.201-.864.609-1.881.609-1.202 0-2.274-.794-2.137-2.078.118-1.106 1.153-1.584 1.848-1.727l2.17-.345c0-.539-.29-.956-1.064-1.006s-1.21.305-1.571 1.017l-1.124-.605c1.218-2.631 5.029-1.764 5.029.414v4.207zm-1.27-2.86c.006.396-.062 1.112-.82 1.59-.587.37-1.841.299-1.903-.395-.049-.555.461-.791.906-.898l1.816-.297zM99.096 10.149H97.85v-8.45h1.246v4.895l2.68-2.559h1.738l-2.633 2.535 2.715 3.578h-1.556l-2.077-2.707-.867.844v1.863zm6.053-6.114h-1.255v6.113h1.255V4.035zm-59.2 0h-1.255v6.113h1.255V4.035zm5.584 6.113V1.697h1.255v2.695c.361-.346 1-.485 1.47-.485 1.452 0 2.477 1.082 2.457 2.448v3.792h-1.27v-3.68c0-.408-.214-1.339-1.315-1.339-.968 0-1.342.756-1.342 1.339v3.681h-1.255zm-4.76-4.894V4.039h.621a.45.45 0 0 0 .45-.45v-.855h1.251v1.305h1.309v1.215h-1.309v3.109c0 .293.105.664.648.664.365 0 .531-.035.736-.07v1.137s-.361.113-.857.113c-1.398 0-1.777-1.051-1.777-1.788V5.254h-1.071zM36.528 4.039h-1.394l2.191 6.106h1.125l1.234-3.918 1.238 3.918h1.129l2.188-6.106h-1.383l-1.359 3.93-1.256-3.93h-1.124l-1.242 3.957-1.348-3.957zM26.212 7.141c-.02 1.566 1.187 3.129 3.223 3.129 1.566 0 2.383-.918 2.734-1.719L31.172 8c-.315.399-.801 1.094-1.738 1.094-1.145 0-1.825-.781-1.891-1.52h4.625c.074-.284.148-.995-.03-1.559-.336-1.064-1.221-2.102-2.839-2.102s-3.088 1.152-3.088 3.227zm1.363-.75h3.348c-.055-.43-.566-1.301-1.623-1.301a1.79 1.79 0 0 0-1.725 1.301zm-8.758.75c.038 1.758 1.277 3.133 3.145 3.133 1.074 0 1.723-.477 1.961-.672v.547h1.242V1.703h-1.258v2.888c-.414-.36-1.062-.68-1.93-.68-1.91 0-3.198 1.473-3.16 3.23zm1.309-.08c0 1.119.723 1.978 1.836 1.978a1.88 1.88 0 0 0 1.94-1.904c0-1.371-1.011-1.99-1.972-1.99s-1.805.798-1.805 1.916zm76.683-.028C96.771 5.275 95.532 3.9 93.664 3.9c-1.074 0-1.723.477-1.961.672v-.547h-1.242v8.22h1.258V9.583c.414.36 1.063.68 1.93.68 1.91 0 3.198-1.473 3.16-3.23zm-1.309.08c0-1.119-.723-1.978-1.836-1.978a1.88 1.88 0 0 0-1.94 1.904c0 1.371 1.011 1.99 1.972 1.99S95.5 8.231 95.5 7.113zM106.441 10.173V4.036h1.254v.382c.361-.346 1-.485 1.47-.485 1.452 0 2.477 1.082 2.457 2.448v3.792h-1.27V6.492c0-.408-.214-1.339-1.315-1.339-.969 0-1.342.756-1.342 1.339v3.681h-1.254zm-30.383-.021V1.824h1.084l4.215 5.777V1.824h1.32v8.328h-1.094l-4.207-5.796v5.796h-1.319zM5.24 10.149H4V2.377h1.014l2.664 3.597 2.654-3.592h1.03v7.766h-1.256V4.762L7.678 8.068 5.24 4.742v5.407z" transform="translate(741, 566)" fill="#ababab88" stroke="none"></path></svg>