<?xml version="1.0" encoding="utf-8" standalone="yes"?>
<!DOCTYPE svg PUBLIC "-//W3C//DTD SVG 1.1//EN" "http://www.w3.org/Graphics/SVG/1.1/DTD/svg11.dtd">
<svg width="648" height="840" viewBox="0 0 648 840" style="fill:none;stroke:none;fill-rule:evenodd;clip-rule:evenodd;stroke-linecap:round;stroke-linejoin:round;stroke-miterlimit:1.5;" version="1.1" xmlns="http://www.w3.org/2000/svg" xmlns:xlink="http://www.w3.org/1999/xlink"><style class="text-font-style fontImports" data-font-family="Roboto">@import url('https://fonts.googleapis.com/css2?family=Roboto:wght@400;700&amp;display=block');</style><g id="items" style="isolation: isolate"><g id="blend" style="mix-blend-mode: normal"><g id="g-root-cp_1_shape-1_1ursj4ca1s26i-fill" data-item-order="-446384" transform="translate(35.499969482421875, 103.81640625)"><g id="cp_1_shape-1_1ursj4ca1s26i-fill" stroke="none" fill="#43dd93"><g><path d="M 214.000203 388.183594L 45.999903 388.183494C 26.117703 388.183494 10.000003 372.081294 10.000003 352.199194L 10.000003 352.183594L 250.000203 352.183594C 250.000203 372.065794 233.882203 388.183594 214.000203 388.183594ZM 254.600031 28.374594L 250.000031 28.374594L 250.000031 160.183594L 10.000031 160.183594C 10.000052 140.301594 26.117731 124.504594 45.999931 124.504594L 172.000031 124.504594C 213.070031 124.504594 238.000031 94.374494 238.000031 55.034494L 238.000031 28.374494L 233.320031 28.374494C 232.540031 28.374494 232.050031 27.524494 232.440031 26.844494L 243.163031 10.631894C 243.559031 10.032994 244.439031 10.034394 244.833031 10.634594L 255.480031 26.844494C 255.880031 27.524594 255.390031 28.374594 254.600031 28.374594ZM 250.000031 160.183594L 250.000031 352.183594L 10.000031 352.183594L 10.000059 160.183594L 250.000031 160.183594Z"></path></g></g></g><g id="g-root-cp_3_shape-3_1hgc0r0a1s3rg-fill" data-item-order="-446362" transform="translate(35, 446)"><g id="cp_3_shape-3_1hgc0r0a1s3rg-fill" stroke="none" fill="#1ac3fb"><g><path d="M 214 64.3209C 244 64.3209 268 46 268 10L 280 10L 280 100.3055L 10 100.3055C 10.000022 80.4233 26.1177 64.3209 45.9999 64.3209L 214 64.3209Z"></path></g></g></g><g id="g-root-cp_3_shape-3_1_1d0iimka1s4jq-fill" data-item-order="-446356" transform="translate(287.302734375, 104)"><g id="cp_3_shape-3_1_1d0iimka1s4jq-fill" stroke="none" fill="#1ac3fb"><g><path d="M 27.696778 352L 15.696778 352L 15.696778 160L 27.696778 160L 27.696778 352ZM 32.2969 28.191L 27.6969 28.191L 27.6969 160L 15.6969 160L 15.6969 28.1909L 11.0169 28.1909C 10.2369 28.1909 9.7469 27.3409 10.1369 26.6609L 20.8599 10.4483C 21.2561 9.8494 22.1356 9.8508 22.5298 10.451L 33.1769 26.6609C 33.5769 27.341 33.0869 28.191 32.2969 28.191Z"></path></g></g></g><g id="g-root-cp_2_shape-2_18lbhl8a1s268-fill" data-item-order="-446342" transform="translate(347.8775634765625, 103.81640625)"><g id="cp_2_shape-2_18lbhl8a1s268-fill" stroke="none" fill="#a6da37"><g><path d="M 51.622433 388.183655L 219.622433 388.183555C 239.504433 388.183555 255.622433 372.081355 255.622433 352.199255L 255.622433 352.183655L 15.622433 352.183655C 15.622433 372.065855 31.740133 388.183655 51.622433 388.183655ZM 11.022416 28.374594L 15.622416 28.374594L 15.622416 160.183594L 255.622016 160.183594C 255.622016 140.301594 239.505016 124.504594 219.623016 124.504594L 93.622416 124.504594C 52.552416 124.504594 27.622416 94.374494 27.622416 55.034494L 27.622416 28.374494L 32.302416 28.374494C 33.082416 28.374494 33.572416 27.524494 33.182416 26.844494L 22.459416 10.631894C 22.063216 10.032994 21.183716 10.034394 20.789516 10.634594L 10.142416 26.844494C 9.742416 27.524594 10.232416 28.374594 11.022416 28.374594ZM 15.62233 160.183594L 15.62233 352.183594L 255.62233 352.183594L 255.62233 160.183594L 15.62233 160.183594Z"></path></g></g></g><g id="g-root-cp_4_shape-4_v9uz7wa1s3r6-fill" data-item-order="-446320" transform="translate(323, 446)"><g id="cp_4_shape-4_v9uz7wa1s3r6-fill" stroke="none" fill="#ffe711"><g><path d="M 76 64.3209C 46 64.3209 22 46 22 10L 10 10L 10 100.3055L 280 100.3055C 280 80.4233 263.882 64.3209 244 64.3209L 76 64.3209Z"></path></g></g></g><g id="g-root-cp_4_shape-4_1_me7yz0a1s4jw-fill" data-item-order="-446314" transform="translate(317.382568359375, 104)"><g id="cp_4_shape-4_1_me7yz0a1s4jw-fill" stroke="none" fill="#ffe711"><g><path d="M 15.622559 352L 27.622559 352L 27.622559 160L 15.622559 160L 15.622559 352ZM 11.0224 28.191L 15.6224 28.191L 15.6224 160L 27.6224 160L 27.6224 28.1909L 32.3024 28.1909C 33.0824 28.1909 33.5724 27.3409 33.1824 26.6609L 22.4594 10.4483C 22.0632 9.8494 21.1837 9.8508 20.7895 10.451L 10.1424 26.6609C 9.7424 27.341 10.2324 28.191 11.0224 28.191Z"></path></g></g></g><g id="g-root-cp_3_shape-3_2_93dxosa1s2z2-fill" data-item-order="-446296" transform="translate(35, 536)"><g id="cp_3_shape-3_2_93dxosa1s2z2-fill" stroke="none" fill="#1ac3fb"><g><path d="M 280 10L 280 189.970749L 10 189.970749L 10.000031 10L 280 10ZM 244 226.007782L 45.9999 226.007682C 26.1177 226.007682 10.000032 209.905482 10 190.023382L 10 190.007782L 280 190.007782C 280 209.889982 263.882 226.007782 244 226.007782Z"></path></g></g></g><g id="g-root-cp_4_shape-4_2_4nkfkca1s3rc-fill" data-item-order="-446272" transform="translate(323, 536)"><g id="cp_4_shape-4_2_4nkfkca1s3rc-fill" stroke="none" fill="#ffe711"><g><path d="M 10 10L 10 190L 280 190L 280 10L 10 10ZM 46 226L 244 225.9999C 263.882 225.9999 280 209.8977 280 190.0156L 280 190L 10 190C 10 209.8822 26.1177 226 46 226Z"></path></g></g></g><g id="g-root-tx_pathways_7qxfwa1s4jm-fill" data-item-order="0" transform="translate(248, 38)"><g id="tx_pathways_7qxfwa1s4jm-fill" stroke="none" fill="#f4f4f4"><g><text style="font: 20px Roboto, sans-serif; white-space: pre;" font-size="20px" font-family="Roboto, sans-serif"><tspan x="13.95" y="34" dominant-baseline="ideographic">Comunication</tspan></text></g></g></g><g id="g-root-ic_arro_959cy4a1s1zh-fill" data-item-order="0" transform="translate(131.5, 242)"></g><g id="g-root-ic_down_1d3mw24a1wbgq-fill" data-item-order="0" transform="translate(449.5, 242)"></g><g id="g-root-tx_buildstr_1d2dxvwa1s3kb-fill" data-item-order="0" transform="translate(77.5, 302)"><g id="tx_buildstr_1d2dxvwa1s3kb-fill" stroke="none" fill="#2c2c2c"><g><text style="font: bold 20px Roboto, sans-serif; white-space: pre;" font-weight="bold" font-size="20px" font-family="Roboto, sans-serif"><tspan x="12.79" y="34" dominant-baseline="ideographic">Builds Trust and </tspan><tspan x="24.52" y="58" dominant-baseline="ideographic">Transparency</tspan></text></g></g></g><g id="g-root-tx_enhances_i09w3wa1wa2w-fill" data-item-order="0" transform="translate(389, 302)"><g id="tx_enhances_i09w3wa1wa2w-fill" stroke="none" fill="#2c2c2c"><g><text style="font: bold 20px Roboto, sans-serif; white-space: pre;" font-weight="bold" font-size="20px" font-family="Roboto, sans-serif"><tspan x="20.59" y="34" dominant-baseline="ideographic">Enhances Team </tspan><tspan x="13.84" y="58" dominant-baseline="ideographic">Commitment and </tspan><tspan x="43.59" y="82" dominant-baseline="ideographic">Ownership</tspan></text></g></g></g><g id="g-root-tx_transpar_zrjwloa1s1zg-fill" data-item-order="0" transform="translate(59.5, 362)"><g id="tx_transpar_zrjwloa1s1zg-fill" stroke="none" fill="#2c2c2c"><g><text style="font: 15px Roboto, sans-serif; white-space: pre;" font-size="15px" font-family="Roboto, sans-serif"><tspan x="16.6" y="31" dominant-baseline="ideographic">Transparency fosters trust, </tspan><tspan x="18.44" y="49" dominant-baseline="ideographic">enhancing long-term team </tspan><tspan x="62.17" y="67" dominant-baseline="ideographic">engagement.</tspan></text></g></g></g><g id="g-root-tx_involvem_9mcp8a1w9a9-fill" data-item-order="0" transform="translate(383, 386)"><g id="tx_involvem_9mcp8a1w9a9-fill" stroke="none" fill="#2c2c2c"><g><text style="font: 15px Roboto, sans-serif; white-space: pre;" font-size="15px" font-family="Roboto, sans-serif"><tspan x="33.47" y="28" dominant-baseline="ideographic">Involvement boosts </tspan><tspan x="13.13" y="46" dominant-baseline="ideographic">ownership, accountability, </tspan><tspan x="32.21" y="64" dominant-baseline="ideographic">and implementation </tspan><tspan x="71" y="82" dominant-baseline="ideographic">support.</tspan></text></g></g></g><g id="g-root-ic_wind_1ltnmj0a1z56v-fill" data-item-order="0" transform="translate(146, 524)"></g><g id="g-root-ic_2_1hdu4eka20jd0-fill" data-item-order="0" transform="translate(434, 524)"></g><g id="g-root-tx_improves_hunmbwa1z4lp-fill" data-item-order="0" transform="translate(68, 584)"><g id="tx_improves_hunmbwa1z4lp-fill" stroke="none" fill="#2c2c2c"><g><text style="font: bold 20px Roboto, sans-serif; white-space: pre;" font-weight="bold" font-size="20px" font-family="Roboto, sans-serif"><tspan x="16.85" y="34" dominant-baseline="ideographic">Improves Clarity and </tspan><tspan x="22.37" y="58" dominant-baseline="ideographic">Reduces Ambiguity</tspan></text></g></g></g><g id="g-root-tx_fostersa_8z0m30a20jk2-fill" data-item-order="0" transform="translate(362, 584)"><g id="tx_fostersa_8z0m30a20jk2-fill" stroke="none" fill="#2c2c2c"><g><text style="font: bold 20px Roboto, sans-serif; white-space: pre;" font-weight="bold" font-size="20px" font-family="Roboto, sans-serif"><tspan x="14.98" y="34" dominant-baseline="ideographic">Fosters a Culture of </tspan><tspan x="52.1" y="58" dominant-baseline="ideographic">Continuous </tspan><tspan x="43.77" y="82" dominant-baseline="ideographic">Improvement</tspan></text></g></g></g><g id="g-root-tx_clearcom_402x8a1z3t2-fill" data-item-order="0" transform="translate(62, 644)"><g id="tx_clearcom_402x8a1z3t2-fill" stroke="none" fill="#2c2c2c"><g><text style="font: 15px Roboto, sans-serif; white-space: pre;" font-size="15px" font-family="Roboto, sans-serif"><tspan x="17.15" y="31" dominant-baseline="ideographic">Clear communication reduces </tspan><tspan x="14.57" y="49" dominant-baseline="ideographic">ambiguity, aligning efforts with </tspan><tspan x="95.37" y="67" dominant-baseline="ideographic">vision.</tspan></text></g></g></g><g id="g-root-tx_opendisc_1upamrwa20hs3-fill" data-item-order="0" transform="translate(356, 668)"><g id="tx_opendisc_1upamrwa20hs3-fill" stroke="none" fill="#2c2c2c"><g><text style="font: 15px Roboto, sans-serif; white-space: pre;" font-size="15px" font-family="Roboto, sans-serif"><tspan x="31.23" y="31" dominant-baseline="ideographic">Open discussions invite </tspan><tspan x="17.13" y="49" dominant-baseline="ideographic">feedback, driving innovation </tspan><tspan x="50.93" y="67" dominant-baseline="ideographic">and performance.</tspan></text></g></g></g><g id="g-root-cp_1_shape-1_1ursj4ca1s26i-stroke" data-item-order="-446384" transform="translate(35.499969482421875, 103.81640625)"><g id="cp_1_shape-1_1ursj4ca1s26i-stroke" fill="none" stroke-linecap="round" stroke-linejoin="round" stroke-miterlimit="4" stroke="#2c2c2c" stroke-width="2"><g><path d="M 10.000031 160.1836C 10.000031 140.3014 26.117731 124.3209 45.999931 124.3209L 172.000031 124.3209C 213.070031 124.3209 238.000031 94.1909 238.000031 54.8509L 238.000031 28.1909L 233.320031 28.1909C 232.540031 28.1909 232.050031 27.3409 232.440031 26.6609L 243.163131 10.4483C 243.559231 9.8494 244.438731 9.8508 244.833031 10.451L 255.480031 26.6609C 255.880031 27.341 255.390031 28.191 254.600031 28.191L 250.000031 28.191L 250.000031 160.1836M 250.000131 352.183594C 250.000131 372.065794 233.882331 388.191394 214.000131 388.191394L 45.999931 388.191294C 26.117731 388.191294 10.000031 372.081294 10.000031 352.199194L 10.000031 352.183594M 250.000138 352.183594L 250.000138 160.183594M 10.000031 160.183594L 10.000031 352.183594"></path></g></g></g><g id="g-root-cp_3_shape-3_1hgc0r0a1s3rg-stroke" data-item-order="-446362" transform="translate(35, 446)"><g id="cp_3_shape-3_1hgc0r0a1s3rg-stroke" fill="none" stroke-linecap="round" stroke-linejoin="round" stroke-miterlimit="4" stroke="#2c2c2c" stroke-width="2"><g><path d="M 268 10C 268 46 244 64.3209 214 64.3209L 45.9999 64.3209C 26.1177 64.3209 10 80.4233 10 100.3055M 280 100.3055L 280 10"></path></g></g></g><g id="g-root-cp_3_shape-3_1_1d0iimka1s4jq-stroke" data-item-order="-446356" transform="translate(287.302734375, 104)"><g id="cp_3_shape-3_1_1d0iimka1s4jq-stroke" fill="none" stroke-linecap="round" stroke-linejoin="round" stroke-miterlimit="4" stroke="#2c2c2c" stroke-width="2"><g><path d="M 15.697266 160L 15.697266 352M 27.697266 352L 27.697266 160M 15.6969 160L 15.6969 28.1909L 11.0169 28.1909C 10.2369 28.1909 9.7469 27.3409 10.1369 26.6609L 20.8599 10.4483C 21.2561 9.8494 22.1356 9.8508 22.5298 10.451L 33.1769 26.6609C 33.5769 27.341 33.0869 28.191 32.2969 28.191L 27.6969 28.191L 27.6969 160"></path></g></g></g><g id="g-root-cp_2_shape-2_18lbhl8a1s268-stroke" data-item-order="-446342" transform="translate(347.8775634765625, 103.81640625)"><g id="cp_2_shape-2_18lbhl8a1s268-stroke" fill="none" stroke-linecap="round" stroke-linejoin="round" stroke-miterlimit="4" stroke="#2c2c2c" stroke-width="2"><g><path d="M 255.622416 160.1836C 255.622416 140.3014 239.504716 124.3209 219.622616 124.3209L 93.622416 124.3209C 52.552416 124.3209 27.622416 94.1909 27.622416 54.8509L 27.622416 28.1909L 32.302416 28.1909C 33.082416 28.1909 33.572416 27.3409 33.182416 26.6609L 22.459416 10.4483C 22.063216 9.8494 21.183716 9.8508 20.789516 10.451L 10.142416 26.6609C 9.742416 27.341 10.232416 28.191 11.022416 28.191L 15.622416 28.191L 15.622416 160.1836M 15.622437 352.183594C 15.622437 372.065794 31.740137 388.183594 51.622437 388.183594L 219.622637 388.183494C 239.504737 388.183494 255.622437 372.081294 255.622437 352.199194L 255.622437 352.183594M 15.62233 352.183594L 15.62233 160.183594M 255.62233 160.183594L 255.62233 352.183594"></path></g></g></g><g id="g-root-cp_4_shape-4_v9uz7wa1s3r6-stroke" data-item-order="-446320" transform="translate(323, 446)"><g id="cp_4_shape-4_v9uz7wa1s3r6-stroke" fill="none" stroke-linecap="round" stroke-linejoin="round" stroke-miterlimit="4" stroke="#2c2c2c" stroke-width="2"><g><path d="M 22 10C 22 46 46 64.3209 76 64.3209L 244.0002 64.3209C 263.8824 64.3209 280 80.4233 280 100.3055M 10 100.3055L 10 10"></path></g></g></g><g id="g-root-cp_4_shape-4_1_me7yz0a1s4jw-stroke" data-item-order="-446314" transform="translate(317.382568359375, 104)"><g id="cp_4_shape-4_1_me7yz0a1s4jw-stroke" fill="none" stroke-linecap="round" stroke-linejoin="round" stroke-miterlimit="4" stroke="#2c2c2c" stroke-width="2"><g><path d="M 27.622071 160L 27.622071 352M 15.622071 352L 15.622071 160M 27.6224 160L 27.6224 28.1909L 32.3024 28.1909C 33.0824 28.1909 33.5724 27.3409 33.1824 26.6609L 22.4594 10.4483C 22.0632 9.8494 21.1837 9.8508 20.7895 10.451L 10.1424 26.6609C 9.7424 27.341 10.2324 28.191 11.0224 28.191L 15.6224 28.191L 15.6224 160"></path></g></g></g><g id="g-root-cp_3_shape-3_2_93dxosa1s2z2-stroke" data-item-order="-446296" transform="translate(35, 536)"><g id="cp_3_shape-3_2_93dxosa1s2z2-stroke" fill="none" stroke-linecap="round" stroke-linejoin="round" stroke-miterlimit="4" stroke="#2c2c2c" stroke-width="2"><g><path d="M 280 189.970749L 280 10M 10 10L 10 190M 280.0001 190.007782C 280.0001 209.889982 263.8823 226.007782 244.0001 226.007782L 45.9999 226.007682C 26.1177 226.007682 10 209.905482 10 190.023382L 10 190.007782"></path></g></g></g><g id="g-root-cp_4_shape-4_2_4nkfkca1s3rc-stroke" data-item-order="-446272" transform="translate(323, 536)"><g id="cp_4_shape-4_2_4nkfkca1s3rc-stroke" fill="none" stroke-linecap="round" stroke-linejoin="round" stroke-miterlimit="4" stroke="#2c2c2c" stroke-width="2"><g><path d="M 10 190L 10 10M 280 10L 280 190M 10 190C 10 209.8822 26.1177 226.0078 45.9999 226.0078L 244.0001 226.0077C 263.8823 226.0077 280 209.8977 280.0001 190.0156L 280.0001 190"></path></g></g></g><g id="g-root-tx_pathways_7qxfwa1s4jm-stroke" data-item-order="0" transform="translate(248, 38)"></g><g id="g-root-ic_arro_959cy4a1s1zh-stroke" data-item-order="0" transform="translate(131.5, 242)"><g id="ic_arro_959cy4a1s1zh-stroke" fill="none" stroke-linecap="round" stroke-linejoin="round" stroke-miterlimit="4" stroke="#2c2c2c" stroke-width="2"><g><path d="M 44.066002 44C 44.065998 46.300819 45.931183 48.166 48.231998 48.166C 50.532818 48.166 52.397999 46.300819 52.397999 44C 52.397999 41.699181 50.532818 39.834 48.231998 39.834C 45.931183 39.834 44.065998 41.699181 44.065998 44M 45.453999 56.5L 56.563999 56.5C 55.899048 53.89912 54.057701 51.757942 51.585693 50.711067C 49.113686 49.664192 46.294624 49.831722 43.964001 51.164001M 15.602 44C 15.602 46.300819 17.467182 48.166 19.768 48.166C 22.068817 48.166 23.934 46.300819 23.934 44C 23.934 41.699181 22.068817 39.834 19.768 39.834C 17.467182 39.834 15.602 41.699181 15.602 44M 22.487999 56.5L 11.436 56.5C 12.098295 53.912041 13.925614 51.778793 16.381168 50.726917C 18.836721 49.675037 21.641655 49.823986 23.972 51.130005M 44.158001 56.5C 44.209476 52.827229 42.279564 49.411205 39.107155 47.559803C 35.934746 45.708397 32.011253 45.708397 28.838844 47.559803C 25.666435 49.411205 23.736523 52.827229 23.787998 56.499996ZM 28.684 34.461998C 31.572502 37.455845 36.012802 38.348686 39.834 36.704002M 27.85 37.517998C 27.85 40.841652 30.544352 43.536003 33.868004 43.536003C 37.19165 43.536003 39.886002 40.841652 39.886002 37.518002C 39.886002 34.194351 37.19165 31.500002 33.868004 31.500002C 30.544352 31.500002 27.85 34.194351 27.85 37.518002M 46.972 35.5C 46.972 35.5 40.972 29.5 40.972 24.5L 49.972 24.5L 33.972 11.5L 17.972 24.5L 26.972 24.5C 26.972 29.5 20.972 35.5 20.972 35.5"></path></g></g></g><g id="g-root-ic_down_1d3mw24a1wbgq-stroke" data-item-order="0" transform="translate(449.5, 242)"><g id="ic_down_1d3mw24a1wbgq-stroke" fill="none" stroke-linecap="round" stroke-linejoin="round" stroke-miterlimit="4" stroke="#2c2c2c" stroke-width="2"><g><path d="M 10 10M 53 57L 53 43M 10 10M 57 53L 53 57L 49 53M 10 10M 41 43L 41 57M 10 10M 45 47L 41 43L 37 47M 11 41C 11 34.372581 16.372583 29 23 29C 29.627417 29 35 34.372581 35 41ZM 15.5 18.5C 15.5 22.642136 18.857864 26 23 26C 27.142136 26 30.5 22.642136 30.5 18.5C 30.5 14.357864 27.142136 11 23 11C 18.857864 11 15.5 14.357864 15.5 18.5ZM 34.5 18.5C 34.5 22.642136 37.857864 26 42 26C 46.142136 26 49.5 22.642136 49.5 18.5C 49.5 14.357864 46.142136 11 42 11C 37.857864 11 34.5 14.357864 34.5 18.5ZM 48.939999 31.209999C 45.112499 28.495749 40.054115 28.261347 35.992001 30.610001"></path></g></g></g><g id="g-root-tx_buildstr_1d2dxvwa1s3kb-stroke" data-item-order="0" transform="translate(77.5, 302)"></g><g id="g-root-tx_enhances_i09w3wa1wa2w-stroke" data-item-order="0" transform="translate(389, 302)"></g><g id="g-root-tx_transpar_zrjwloa1s1zg-stroke" data-item-order="0" transform="translate(59.5, 362)"></g><g id="g-root-tx_involvem_9mcp8a1w9a9-stroke" data-item-order="0" transform="translate(383, 386)"></g><g id="g-root-ic_wind_1ltnmj0a1z56v-stroke" data-item-order="0" transform="translate(146, 524)"><g id="ic_wind_1ltnmj0a1z56v-stroke" fill="none" stroke-linecap="round" stroke-linejoin="round" stroke-miterlimit="4" stroke="#2c2c2c" stroke-width="2"><g><path d="M 12 11L 30 11C 30 11 31 11 31 12L 31 56C 31 56 31 57 30 57L 12 57C 12 57 11 57 11 56L 11 12C 11 12 11 11 12 11M 38 11L 56 11C 56 11 57 11 57 12L 57 56C 57 56 57 57 56 57L 38 57C 38 57 37 57 37 56L 37 12C 37 12 37 11 38 11M 31 34.379997C 29.910284 33.117386 28.149431 32.667183 26.587425 33.251823C 25.025417 33.836456 23.992897 35.332184 24 37L 23 37C 21.740971 37 20.555416 37.592777 19.799999 38.599998C 19.459106 39.054527 19.40427 39.662643 19.65836 40.170822C 19.912449 40.678997 20.431843 41 21 41L 31 41ZM 57 25.380001C 55.910282 24.117388 54.149429 23.667185 52.587425 24.251823C 51.025417 24.83646 49.992897 26.332182 50 28L 49 28C 47.740971 28 46.555416 28.592777 45.799999 29.6C 45.459106 30.054527 45.404274 30.662645 45.65836 31.17082C 45.912449 31.678997 46.431843 32 47 32L 57 32ZM 27 41L 27 43C 27 43.629513 26.703611 44.22229 26.200001 44.599998L 23.799999 46.400002C 23.280712 46.789467 22.649111 47 22 47L 17 47C 16.360205 46.999756 15.746525 47.253716 15.294 47.705997L 11 52M 31 44C 31.000118 45.255135 30.393698 46.432961 29.372 47.161999L 25.628 49.838001C 24.569237 50.5938 23.30085 51.000046 22 51C 20.160973 50.999512 18.479725 52.038773 17.658001 53.684002L 16 57M 41.035999 39.954002L 44.012001 36.236C 44.661461 35.421524 45.480415 34.758171 46.412003 34.292L 51 32L 55 32L 48 37.243999C 47.335224 37.743164 46.779232 38.372658 46.366001 39.094002L 44 43.264C 43.384964 44.340069 42.239429 45.002953 41 45M 44.141998 43L 46.400002 43C 48.749111 43.001076 51.045429 43.69693 53 45"></path></g></g></g><g id="g-root-ic_2_1hdu4eka20jd0-stroke" data-item-order="0" transform="translate(434, 524)"><g id="ic_2_1hdu4eka20jd0-stroke" fill="none" stroke-linecap="round" stroke-linejoin="round" stroke-miterlimit="4" stroke="#2c2c2c" stroke-width="2"><g><path d="M 11 44.236C 11 47.199562 13.40244 49.602001 16.366001 49.602001C 19.329559 49.602001 21.732 47.199562 21.732 44.236C 21.732 41.272442 19.329559 38.870003 16.366001 38.870003C 13.40244 38.870003 11 41.272442 11 44.236M 24.83 56.722C 23.733578 54.15427 21.530436 52.223373 18.841097 51.47316C 16.151758 50.722946 13.267247 51.234596 11 52.863998M 46.268002 44.236C 46.268002 47.199562 48.670441 49.602001 51.634003 49.602001C 54.597561 49.602001 57.000004 47.199562 57.000004 44.236C 57.000004 41.272442 54.597561 38.870003 51.634003 38.870003C 48.670441 38.870003 46.268002 41.272442 46.268002 44.236M 43.169998 56.722C 44.266418 54.15427 46.469563 52.223373 49.158901 51.47316C 51.84824 50.722946 54.73275 51.234596 56.999996 52.863998M 27.1 42.702C 27.099024 46.513454 30.188545 49.603767 34 49.603767C 37.811455 49.603767 40.900978 46.513454 40.900002 42.702C 40.900978 38.890545 37.811455 35.800232 34 35.800232C 30.188545 35.800232 27.099024 38.890545 27.1 42.702M 43.169998 56.722C 40.820126 54.140408 37.490913 52.668919 34 52.668919C 30.509081 52.668919 27.179871 54.140408 24.829998 56.721996M 30.934 25.077999C 30.934 26.771305 32.306694 28.144001 34 28.144001C 35.693306 28.144001 37.066002 26.771305 37.066002 25.077999C 37.066002 23.384695 35.693306 22.012001 34 22.012001C 32.306694 22.012001 30.934 23.384695 30.934 25.077999M 28.091999 32.577999L 25.08 33.276001C 23.909945 33.537689 22.705814 33.007095 22.109383 31.967009C 21.512949 30.926922 21.663177 29.619677 22.48 28.742001L 24.582001 26.469999C 25.309984 25.684002 25.309984 24.469999 24.582001 23.684L 22.476 21.414C 21.660423 20.53574 21.510864 19.229115 22.106888 18.189278C 22.702915 17.149443 23.90597 16.618126 25.076 16.878L 28.087999 17.576C 29.13192 17.814625 30.181868 17.202154 30.488001 16.176001L 31.4 13.214C 31.745472 12.063965 32.804195 11.276545 34.004997 11.276545C 35.205803 11.276545 36.264526 12.063965 36.610001 13.214L 37.514 16.184C 37.820133 17.210155 38.870079 17.822624 39.914001 17.584L 42.914001 16.886C 44.084026 16.626125 45.287083 17.157444 45.88311 18.197277C 46.479134 19.237114 46.329575 20.543739 45.513996 21.421999L 43.416 23.684C 42.689945 24.470753 42.689945 25.683243 43.415997 26.469999L 45.523998 28.742001C 46.340824 29.619677 46.491055 30.926922 45.894619 31.967009C 45.298187 33.007095 44.094059 33.537689 42.924 33.276001L 39.924 32.577999M 28.6 38.400002C 31.986273 41.374069 36.396431 42.91465 40.898003 42.696003M 12.152 40.924C 14.800483 43.220455 18.232716 44.406799 21.734001 44.236M 47.417999 40.924C 50.066483 43.220455 53.498718 44.406799 57.000004 44.236"></path></g></g></g><g id="g-root-tx_improves_hunmbwa1z4lp-stroke" data-item-order="0" transform="translate(68, 584)"></g><g id="g-root-tx_fostersa_8z0m30a20jk2-stroke" data-item-order="0" transform="translate(362, 584)"></g><g id="g-root-tx_clearcom_402x8a1z3t2-stroke" data-item-order="0" transform="translate(62, 644)"></g><g id="g-root-tx_opendisc_1upamrwa20hs3-stroke" data-item-order="0" transform="translate(356, 668)"></g></g></g><path id="w8wiga4c9nfnk" d="M65.283 12.757a.35.35 0 0 0 .584.157l5.203-5.141-6.183 3.523.396 1.461zm-2.216-11.7a.35.35 0 0 0-.522.305v3.111l3.276-1.868-2.754-1.548zm3.728 2.105l-4.25 2.421v2.445l6.391-3.644-2.141-1.222zm4.708 3.303a.35.35 0 0 0 0-.609l-1.592-.9-7.365 4.199v1.782a.35.35 0 0 0 .523.305l8.435-4.777z M44.542 2.513c0-.433.355-.783.792-.783s.792.35.792.783-.355.783-.792.783-.792-.35-.792-.783zm59.171 0c0-.433.355-.783.792-.783s.792.35.792.783-.355.783-.792.783-.792-.35-.792-.783zm-85.951 7.636h-1.27v-.487c-.276.201-.864.609-1.881.609-1.202 0-2.274-.794-2.137-2.078.118-1.106 1.153-1.584 1.848-1.727l2.17-.345c0-.539-.29-.956-1.064-1.006s-1.21.305-1.571 1.017l-1.124-.605c1.218-2.631 5.029-1.764 5.029.414v4.207zm-1.27-2.86c.006.396-.062 1.112-.819 1.59-.587.37-1.841.299-1.903-.395-.049-.555.461-.791.906-.898l1.816-.297zm72.662 2.86h-1.27v-.487c-.276.201-.864.609-1.881.609-1.202 0-2.274-.794-2.137-2.078.118-1.106 1.153-1.584 1.848-1.727l2.17-.345c0-.539-.29-.956-1.064-1.006s-1.21.305-1.571 1.017l-1.124-.605c1.218-2.631 5.029-1.764 5.029.414v4.207zm-1.27-2.86c.006.396-.062 1.112-.82 1.59-.587.37-1.841.299-1.903-.395-.049-.555.461-.791.906-.898l1.816-.297zM99.096 10.149H97.85v-8.45h1.246v4.895l2.68-2.559h1.738l-2.633 2.535 2.715 3.578h-1.556l-2.077-2.707-.867.844v1.863zm6.053-6.114h-1.255v6.113h1.255V4.035zm-59.2 0h-1.255v6.113h1.255V4.035zm5.584 6.113V1.697h1.255v2.695c.361-.346 1-.485 1.47-.485 1.452 0 2.477 1.082 2.457 2.448v3.792h-1.27v-3.68c0-.408-.214-1.339-1.315-1.339-.968 0-1.342.756-1.342 1.339v3.681h-1.255zm-4.76-4.894V4.039h.621a.45.45 0 0 0 .45-.45v-.855h1.251v1.305h1.309v1.215h-1.309v3.109c0 .293.105.664.648.664.365 0 .531-.035.736-.07v1.137s-.361.113-.857.113c-1.398 0-1.777-1.051-1.777-1.788V5.254h-1.071zM36.528 4.039h-1.394l2.191 6.106h1.125l1.234-3.918 1.238 3.918h1.129l2.188-6.106h-1.383l-1.359 3.93-1.256-3.93h-1.124l-1.242 3.957-1.348-3.957zM26.212 7.141c-.02 1.566 1.187 3.129 3.223 3.129 1.566 0 2.383-.918 2.734-1.719L31.172 8c-.315.399-.801 1.094-1.738 1.094-1.145 0-1.825-.781-1.891-1.52h4.625c.074-.284.148-.995-.03-1.559-.336-1.064-1.221-2.102-2.839-2.102s-3.088 1.152-3.088 3.227zm1.363-.75h3.348c-.055-.43-.566-1.301-1.623-1.301a1.79 1.79 0 0 0-1.725 1.301zm-8.758.75c.038 1.758 1.277 3.133 3.145 3.133 1.074 0 1.723-.477 1.961-.672v.547h1.242V1.703h-1.258v2.888c-.414-.36-1.062-.68-1.93-.68-1.91 0-3.198 1.473-3.16 3.23zm1.309-.08c0 1.119.723 1.978 1.836 1.978a1.88 1.88 0 0 0 1.94-1.904c0-1.371-1.011-1.99-1.972-1.99s-1.805.798-1.805 1.916zm76.683-.028C96.771 5.275 95.532 3.9 93.664 3.9c-1.074 0-1.723.477-1.961.672v-.547h-1.242v8.22h1.258V9.583c.414.36 1.063.68 1.93.68 1.91 0 3.198-1.473 3.16-3.23zm-1.309.08c0-1.119-.723-1.978-1.836-1.978a1.88 1.88 0 0 0-1.94 1.904c0 1.371 1.011 1.99 1.972 1.99S95.5 8.231 95.5 7.113zM106.441 10.173V4.036h1.254v.382c.361-.346 1-.485 1.47-.485 1.452 0 2.477 1.082 2.457 2.448v3.792h-1.27V6.492c0-.408-.214-1.339-1.315-1.339-.969 0-1.342.756-1.342 1.339v3.681h-1.254zm-30.383-.021V1.824h1.084l4.215 5.777V1.824h1.32v8.328h-1.094l-4.207-5.796v5.796h-1.319zM5.24 10.149H4V2.377h1.014l2.664 3.597 2.654-3.592h1.03v7.766h-1.256V4.762L7.678 8.068 5.24 4.742v5.407z" transform="translate(512, 806)" fill="#ababab88" stroke="none"></path></svg>